<svg viewBox="0 0 12.000 6.000" xmlns="http://www.w3.org/2000/svg">
    <defs>
        <linearGradient id="pattern_0" spreadMethod="repeat" x2="0.1000" gradientUnits="userSpaceOnUse"
                        gradientTransform="rotate(90)">
            <stop offset="0.00" stop-color="red"/>
            <stop offset="0.50" stop-color="red"/>
            <stop offset="0.50" stop-color="gold"/>
            <stop offset="1.00" stop-color="gold"/>
        </linearGradient>
        <style>
        </style>
    </defs>
    <rect x="0.0000" y="0.0000" width="3.0000" height="3.0000" style="fill:none;stroke:black;stroke-width:0.0050"/>
    <rect x="0.8400" y="1.0100" width="0.2400" height="0.8400" style="fill:#af7658;stroke:black;stroke-width:0.0050"/>
    <rect x="1.9200" y="1.0100" width="0.2400" height="0.8400" style="fill:#af7658;stroke:black;stroke-width:0.0050"/>
    <rect x="1.1850" y="1.8500" width="0.2800" height="0.6500" style="fill:#af7658;stroke:black;stroke-width:0.0050"/>
    <rect x="1.5350" y="1.8500" width="0.2800" height="0.6500" style="fill:#af7658;stroke:black;stroke-width:0.0050"/>
    <path d="M 1.5050 2.5000 A 0.1800 0.1800 0.0000 0 0 1.1450 2.5000 Z"
          style="fill:#af7658;stroke:black;stroke-width:0.0050"/>
    <path d="M 1.8550 2.5000 A 0.1800 0.1800 0.0000 0 0 1.4950 2.5000 Z"
          style="fill:#af7658;stroke:black;stroke-width:0.0050"/>
    <path d="M 1.1500 1.8500 L 1.1500 1.6400 L 1.1500 1.4300 L 1.0800 1.2200 L 1.0800 1.0100 L 1.9200 1.0100 L 1.9200 1.2200 L 1.8500 1.4300 L 1.8500 1.6400 L 1.8500 1.8500 Z"
          style="fill:#af7658;stroke:black;stroke-width:0.0050"/>
    <rect x="1.2500" y="0.5000" width="0.5000" height="0.5000" style="fill:#af7658;stroke:black;stroke-width:0.0050"/>
    <rect x="3.0000" y="0.0000" width="3.0000" height="3.0000" style="fill:none;stroke:black;stroke-width:0.0050"/>
    <rect x="3.8400" y="1.0100" width="0.2400" height="0.8400" style="fill:#af7658;stroke:black;stroke-width:0.0050"/>
    <rect x="4.9200" y="1.0100" width="0.2400" height="0.8400" style="fill:#af7658;stroke:black;stroke-width:0.0050"/>
    <rect x="4.1850" y="1.8500" width="0.2800" height="0.6500" style="fill:#af7658;stroke:black;stroke-width:0.0050"/>
    <rect x="4.5350" y="1.8500" width="0.2800" height="0.6500" style="fill:#af7658;stroke:black;stroke-width:0.0050"/>
    <path d="M 4.5050 2.5000 A 0.1800 0.1800 0.0000 0 0 4.1450 2.5000 Z"
          style="fill:#af7658;stroke:black;stroke-width:0.0050"/>
    <path d="M 4.8550 2.5000 A 0.1800 0.1800 0.0000 0 0 4.4950 2.5000 Z"
          style="fill:#af7658;stroke:black;stroke-width:0.0050"/>
    <path d="M 4.1500 1.8500 L 4.1500 1.6400 L 4.1500 1.4300 L 4.0800 1.2200 L 4.0800 1.0100 L 4.9200 1.0100 L 4.9200 1.2200 L 4.8500 1.4300 L 4.8500 1.6400 L 4.8500 1.8500 Z"
          style="fill:#af7658;stroke:black;stroke-width:0.0050"/>
    <rect x="4.2500" y="0.5000" width="0.5000" height="0.5000" style="fill:#af7658;stroke:black;stroke-width:0.0050"/>
    <rect x="6.0000" y="0.0000" width="3.0000" height="3.0000" style="fill:none;stroke:black;stroke-width:0.0050"/>
    <rect x="6.8400" y="1.0100" width="0.2400" height="0.8400" style="fill:#af7658;stroke:black;stroke-width:0.0050"/>
    <rect x="7.9200" y="1.0100" width="0.2400" height="0.8400" style="fill:#af7658;stroke:black;stroke-width:0.0050"/>
    <rect x="7.1850" y="1.8500" width="0.2800" height="0.6500" style="fill:#af7658;stroke:black;stroke-width:0.0050"/>
    <rect x="7.5350" y="1.8500" width="0.2800" height="0.6500" style="fill:#af7658;stroke:black;stroke-width:0.0050"/>
    <path d="M 7.5050 2.5000 A 0.1800 0.1800 0.0000 0 0 7.1450 2.5000 Z"
          style="fill:#af7658;stroke:black;stroke-width:0.0050"/>
    <path d="M 7.8550 2.5000 A 0.1800 0.1800 0.0000 0 0 7.4950 2.5000 Z"
          style="fill:#af7658;stroke:black;stroke-width:0.0050"/>
    <path d="M 7.1500 1.8500 L 7.1500 1.6400 L 7.1500 1.4300 L 7.0800 1.2200 L 7.0800 1.0100 L 7.9200 1.0100 L 7.9200 1.2200 L 7.8500 1.4300 L 7.8500 1.6400 L 7.8500 1.8500 Z"
          style="fill:#af7658;stroke:black;stroke-width:0.0050"/>
    <rect x="7.2500" y="0.5000" width="0.5000" height="0.5000" style="fill:#af7658;stroke:black;stroke-width:0.0050"/>
    <rect x="9.0000" y="0.0000" width="3.0000" height="3.0000" style="fill:none;stroke:black;stroke-width:0.0050"/>
    <rect x="9.8400" y="1.0100" width="0.2400" height="0.8400" style="fill:#af7658;stroke:black;stroke-width:0.0050"/>
    <rect x="10.9200" y="1.0100" width="0.2400" height="0.8400" style="fill:#af7658;stroke:black;stroke-width:0.0050"/>
    <rect x="10.1850" y="1.8500" width="0.2800" height="0.6500" style="fill:#af7658;stroke:black;stroke-width:0.0050"/>
    <rect x="10.5350" y="1.8500" width="0.2800" height="0.6500" style="fill:#af7658;stroke:black;stroke-width:0.0050"/>
    <path d="M 10.5050 2.5000 A 0.1800 0.1800 0.0000 0 0 10.1450 2.5000 Z"
          style="fill:#af7658;stroke:black;stroke-width:0.0050"/>
    <path d="M 10.8550 2.5000 A 0.1800 0.1800 0.0000 0 0 10.4950 2.5000 Z"
          style="fill:#af7658;stroke:black;stroke-width:0.0050"/>
    <path d="M 10.1500 1.8500 L 10.1500 1.6400 L 10.1500 1.4300 L 10.0800 1.2200 L 10.0800 1.0100 L 10.9200 1.0100 L 10.9200 1.2200 L 10.8500 1.4300 L 10.8500 1.6400 L 10.8500 1.8500 Z"
          style="fill:#af7658;stroke:black;stroke-width:0.0050"/>
    <circle cx="9.9600" cy="0.4000" r="0.1000" style="fill:blue;stroke:black;stroke-width:0.0050"/>
    <rect x="10.2500" y="0.5000" width="0.5000" height="0.5000" style="fill:#af7658;stroke:black;stroke-width:0.0050"/>
    <rect x="0.0000" y="3.0000" width="3.0000" height="3.0000" style="fill:none;stroke:black;stroke-width:0.0050"/>
    <rect x="0.8400" y="4.0100" width="0.2400" height="0.8400" style="fill:#af7658;stroke:black;stroke-width:0.0050"/>
    <rect x="1.9200" y="4.0100" width="0.2400" height="0.8400" style="fill:#af7658;stroke:black;stroke-width:0.0050"/>
    <rect x="1.1850" y="4.8500" width="0.2800" height="0.6500" style="fill:#af7658;stroke:black;stroke-width:0.0050"/>
    <rect x="1.5350" y="4.8500" width="0.2800" height="0.6500" style="fill:#af7658;stroke:black;stroke-width:0.0050"/>
    <path d="M 1.5050 5.5000 A 0.1800 0.1800 0.0000 0 0 1.1450 5.5000 Z"
          style="fill:#af7658;stroke:black;stroke-width:0.0050"/>
    <path d="M 1.8550 5.5000 A 0.1800 0.1800 0.0000 0 0 1.4950 5.5000 Z"
          style="fill:#af7658;stroke:black;stroke-width:0.0050"/>
    <path d="M 1.1500 4.8500 L 1.1500 4.6400 L 1.1500 4.4300 L 1.0800 4.2200 L 1.0800 4.0100 L 1.9200 4.0100 L 1.9200 4.2200 L 1.8500 4.4300 L 1.8500 4.6400 L 1.8500 4.8500 Z"
          style="fill:#af7658;stroke:black;stroke-width:0.0050"/>
    <rect x="1.2500" y="3.5000" width="0.5000" height="0.5000" style="fill:#af7658;stroke:black;stroke-width:0.0050"/>
    <rect x="3.0000" y="3.0000" width="3.0000" height="3.0000" style="fill:none;stroke:black;stroke-width:0.0050"/>
    <rect x="3.8400" y="4.0100" width="0.2400" height="0.8400" style="fill:#af7658;stroke:black;stroke-width:0.0050"/>
    <rect x="4.9200" y="4.0100" width="0.2400" height="0.8400" style="fill:#af7658;stroke:black;stroke-width:0.0050"/>
    <rect x="4.1850" y="4.8500" width="0.2800" height="0.6500" style="fill:#af7658;stroke:black;stroke-width:0.0050"/>
    <rect x="4.5350" y="4.8500" width="0.2800" height="0.6500" style="fill:#af7658;stroke:black;stroke-width:0.0050"/>
    <path d="M 4.5050 5.5000 A 0.1800 0.1800 0.0000 0 0 4.1450 5.5000 Z"
          style="fill:#af7658;stroke:black;stroke-width:0.0050"/>
    <path d="M 4.8550 5.5000 A 0.1800 0.1800 0.0000 0 0 4.4950 5.5000 Z"
          style="fill:#af7658;stroke:black;stroke-width:0.0050"/>
    <path d="M 4.1500 4.8500 L 4.1500 4.6400 L 4.1500 4.4300 L 4.0800 4.2200 L 4.0800 4.0100 L 4.9200 4.0100 L 4.9200 4.2200 L 4.8500 4.4300 L 4.8500 4.6400 L 4.8500 4.8500 Z"
          style="fill:#af7658;stroke:black;stroke-width:0.0050"/>
    <rect x="4.2500" y="3.5000" width="0.5000" height="0.5000" style="fill:#af7658;stroke:black;stroke-width:0.0050"/>
    <rect x="6.0000" y="3.0000" width="3.0000" height="3.0000" style="fill:none;stroke:black;stroke-width:0.0050"/>
    <rect x="6.8400" y="4.0100" width="0.2400" height="0.8400" style="fill:#af7658;stroke:black;stroke-width:0.0050"/>
    <rect x="7.9200" y="4.0100" width="0.2400" height="0.8400" style="fill:#af7658;stroke:black;stroke-width:0.0050"/>
    <rect x="7.1850" y="4.8500" width="0.2800" height="0.6500" style="fill:#af7658;stroke:black;stroke-width:0.0050"/>
    <rect x="7.5350" y="4.8500" width="0.2800" height="0.6500" style="fill:#af7658;stroke:black;stroke-width:0.0050"/>
    <path d="M 7.5050 5.5000 A 0.1800 0.1800 0.0000 0 0 7.1450 5.5000 Z"
          style="fill:#af7658;stroke:black;stroke-width:0.0050"/>
    <path d="M 7.8550 5.5000 A 0.1800 0.1800 0.0000 0 0 7.4950 5.5000 Z"
          style="fill:#af7658;stroke:black;stroke-width:0.0050"/>
    <path d="M 7.1500 4.8500 L 7.1500 4.6400 L 7.1500 4.4300 L 7.0800 4.2200 L 7.0800 4.0100 L 7.9200 4.0100 L 7.9200 4.2200 L 7.8500 4.4300 L 7.8500 4.6400 L 7.8500 4.8500 Z"
          style="fill:#af7658;stroke:black;stroke-width:0.0050"/>
    <rect x="7.2500" y="3.5000" width="0.5000" height="0.5000" style="fill:#af7658;stroke:black;stroke-width:0.0050"/>
    <rect x="9.0000" y="3.0000" width="3.0000" height="3.0000" style="fill:none;stroke:black;stroke-width:0.0050"/>
    <rect x="9.8400" y="4.0100" width="0.2400" height="0.8400" style="fill:#af7658;stroke:black;stroke-width:0.0050"/>
    <rect x="10.9200" y="4.0100" width="0.2400" height="0.8400" style="fill:#af7658;stroke:black;stroke-width:0.0050"/>
    <rect x="10.1850" y="4.8500" width="0.2800" height="0.6500" style="fill:#af7658;stroke:black;stroke-width:0.0050"/>
    <rect x="10.5350" y="4.8500" width="0.2800" height="0.6500" style="fill:#af7658;stroke:black;stroke-width:0.0050"/>
    <path d="M 10.5050 5.5000 A 0.1800 0.1800 0.0000 0 0 10.1450 5.5000 Z"
          style="fill:#af7658;stroke:black;stroke-width:0.0050"/>
    <path d="M 10.8550 5.5000 A 0.1800 0.1800 0.0000 0 0 10.4950 5.5000 Z"
          style="fill:#af7658;stroke:black;stroke-width:0.0050"/>
    <path d="M 10.1500 4.8500 L 10.1500 4.6400 L 10.1500 4.4300 L 10.0800 4.2200 L 10.0800 4.0100 L 10.9200 4.0100 L 10.9200 4.2200 L 10.8500 4.4300 L 10.8500 4.6400 L 10.8500 4.8500 Z"
          style="fill:#af7658;stroke:black;stroke-width:0.0050"/>
    <circle cx="9.9600" cy="3.4000" r="0.1000" style="fill:blue;stroke:black;stroke-width:0.0050"/>
    <rect x="10.2500" y="3.5000" width="0.5000" height="0.5000" style="fill:#af7658;stroke:black;stroke-width:0.0050"/>
    <path d="M 0.9100 0.5000 L 0.9100 1.5000 L 0.9100 2.5000 L 0.9600 2.5000 L 1.0100 2.5000 L 1.0100 1.5000 L 1.0100 0.5000 L 0.9600 0.5000 Z"
          style="fill:saddlebrown;stroke:black;stroke-width:0.0050"/>
    <path d="M 3.9100 0.6000 Q 3.9100 0.7000 3.9100 1.6000 L 3.9100 2.5000 L 3.9600 2.5000 L 4.0100 2.5000 L 4.0100 1.6000 Q 4.0100 0.7000 4.0100 0.6000 Q 4.0100 0.5000 3.9600 0.5000 Q 3.9100 0.5000 3.9100 0.6000"
          style="fill:saddlebrown;stroke:black;stroke-width:0.0050"/>
    <path d="M 6.9600 0.5000 L 6.9350 0.6000 L 6.9100 0.7000 L 6.9100 1.6000 L 6.9100 2.5000 L 6.9600 2.5000 L 7.0100 2.5000 L 7.0100 1.6000 L 7.0100 0.7000 L 6.9850 0.6000 Z"
          style="fill:saddlebrown;stroke:black;stroke-width:0.0050"/>
    <path d="M 9.9100 0.5000 L 9.9100 1.5000 L 9.9100 2.5000 L 9.9600 2.5000 L 10.0100 2.5000 L 10.0100 1.5000 L 10.0100 0.5000 L 9.9600 0.5000 Z"
          style="fill:saddlebrown;stroke:black;stroke-width:0.0050"/>
    <path d="M 0.9100 3.5000 L 0.9100 4.5000 L 0.9100 5.5000 L 0.9600 5.5000 L 1.0100 5.5000 L 1.0100 4.5000 L 1.0100 3.5000 L 0.9600 3.5000 Z"
          style="fill:url(#pattern_0);stroke:black;stroke-width:0.0050"/>
    <path d="M 3.9100 3.6000 Q 3.9100 3.7000 3.9100 4.6000 L 3.9100 5.5000 L 3.9600 5.5000 L 4.0100 5.5000 L 4.0100 4.6000 Q 4.0100 3.7000 4.0100 3.6000 Q 4.0100 3.5000 3.9600 3.5000 Q 3.9100 3.5000 3.9100 3.6000"
          style="fill:url(#pattern_0);stroke:black;stroke-width:0.0050"/>
    <path d="M 6.9600 3.5000 L 6.9350 3.6000 L 6.9100 3.7000 L 6.9100 4.6000 L 6.9100 5.5000 L 6.9600 5.5000 L 7.0100 5.5000 L 7.0100 4.6000 L 7.0100 3.7000 L 6.9850 3.6000 Z"
          style="fill:url(#pattern_0);stroke:black;stroke-width:0.0050"/>
    <path d="M 9.9100 3.5000 L 9.9100 4.5000 L 9.9100 5.5000 L 9.9600 5.5000 L 10.0100 5.5000 L 10.0100 4.5000 L 10.0100 3.5000 L 9.9600 3.5000 Z"
          style="fill:url(#pattern_0);stroke:black;stroke-width:0.0050"/>
    <circle cx="0.9600" cy="1.8500" r="0.1400" style="fill:#af7658;stroke:black;stroke-width:0.0050"/>
    <circle cx="2.0400" cy="1.8500" r="0.1400" style="fill:#af7658;stroke:black;stroke-width:0.0050"/>
    <circle cx="3.9600" cy="1.8500" r="0.1400" style="fill:#af7658;stroke:black;stroke-width:0.0050"/>
    <circle cx="5.0400" cy="1.8500" r="0.1400" style="fill:#af7658;stroke:black;stroke-width:0.0050"/>
    <circle cx="6.9600" cy="1.8500" r="0.1400" style="fill:#af7658;stroke:black;stroke-width:0.0050"/>
    <circle cx="8.0400" cy="1.8500" r="0.1400" style="fill:#af7658;stroke:black;stroke-width:0.0050"/>
    <circle cx="9.9600" cy="1.8500" r="0.1400" style="fill:#af7658;stroke:black;stroke-width:0.0050"/>
    <circle cx="11.0400" cy="1.8500" r="0.1400" style="fill:#af7658;stroke:black;stroke-width:0.0050"/>
    <circle cx="0.9600" cy="4.8500" r="0.1400" style="fill:#af7658;stroke:black;stroke-width:0.0050"/>
    <circle cx="2.0400" cy="4.8500" r="0.1400" style="fill:#af7658;stroke:black;stroke-width:0.0050"/>
    <circle cx="3.9600" cy="4.8500" r="0.1400" style="fill:#af7658;stroke:black;stroke-width:0.0050"/>
    <circle cx="5.0400" cy="4.8500" r="0.1400" style="fill:#af7658;stroke:black;stroke-width:0.0050"/>
    <circle cx="6.9600" cy="4.8500" r="0.1400" style="fill:#af7658;stroke:black;stroke-width:0.0050"/>
    <circle cx="8.0400" cy="4.8500" r="0.1400" style="fill:#af7658;stroke:black;stroke-width:0.0050"/>
    <circle cx="9.9600" cy="4.8500" r="0.1400" style="fill:#af7658;stroke:black;stroke-width:0.0050"/>
    <circle cx="11.0400" cy="4.8500" r="0.1400" style="fill:#af7658;stroke:black;stroke-width:0.0050"/>
    <text x="3.0000" y="0.1500" alignment-baseline="middle" style="fill:black;font-size:0.300px" text-anchor="end">
        None
    </text>
    <text x="6.0000" y="0.1500" alignment-baseline="middle" style="fill:black;font-size:0.300px" text-anchor="end">
        Rounded
    </text>
    <text x="9.0000" y="0.1500" alignment-baseline="middle" style="fill:black;font-size:0.300px" text-anchor="end">
        Sharpened
    </text>
    <text x="12.0000" y="0.1500" alignment-baseline="middle" style="fill:black;font-size:0.300px" text-anchor="end">
        Segments
    </text>
    <text x="0.1500" y="1.5000" alignment-baseline="middle" transform="rotate(270.000,0.150,1.500)"
          style="fill:black;font-size:0.300px" text-anchor="middle">Wood
    </text>
    <text x="3.0000" y="3.1500" alignment-baseline="middle" style="fill:black;font-size:0.300px" text-anchor="end">
        None
    </text>
    <text x="6.0000" y="3.1500" alignment-baseline="middle" style="fill:black;font-size:0.300px" text-anchor="end">
        Rounded
    </text>
    <text x="9.0000" y="3.1500" alignment-baseline="middle" style="fill:black;font-size:0.300px" text-anchor="end">
        Sharpened
    </text>
    <text x="12.0000" y="3.1500" alignment-baseline="middle" style="fill:black;font-size:0.300px" text-anchor="end">
        Segments
    </text>
    <text x="0.1500" y="4.5000" alignment-baseline="middle" transform="rotate(270.000,0.150,4.500)"
          style="fill:black;font-size:0.300px" text-anchor="middle">Stripped
    </text>
</svg>